<?xml version="1.0" encoding="UTF-8"?>
<svg width="90px" height="90px" viewBox="0 0 90 90" version="1.1" xmlns="http://www.w3.org/2000/svg" xmlns:xlink="http://www.w3.org/1999/xlink">
    <g id="Page-1" stroke="none" stroke-width="1" fill="none" fill-rule="evenodd">
        <g id="Group" fill="#040000" fill-rule="nonzero">
            <path d="M57.2,35.6 C57.4,36.3 57.5,37.4 57.5,38.5 C57.5,40.6 57.1,42.3 56.6,42.3 C56.1,42.3 55.7,40.6 55.7,38.5 C55.7,37.5 55.8,36.5 56,35.8 C51.9,37.1 50.6,40.7 50.6,40.7 C61.1,47.6 64.4,36.3 64.4,36.3 C61.4,35.4 59.1,35.3 57.2,35.6 Z" id="Path"></path>
            <path d="M47.4,48.7 C47.4,48.7 47.4,48.6 47.4,48.6 C47.4,48.6 47.5,48.5 47.5,48.5 L49.5,46 C49.5,46 44,45.9 43.8,46 L45.8,48.5 C45.8,48.5 45.8,48.5 45.8,48.5 C45.8,48.6 45.8,48.7 45.8,48.7 C45.7,50.4 45,53 42,53.2 C42,53.2 45.2,53.8 46.6,51.3 C48.1,53.7 51.2,53.2 51.2,53.2 C48.3,53 47.5,50.4 47.4,48.7 Z" id="Path"></path>
            <path d="M37,35.8 C37.2,36.5 37.3,37.5 37.3,38.5 C37.3,40.6 36.9,42.3 36.4,42.3 C35.9,42.3 35.5,40.6 35.5,38.5 C35.5,37.3 35.6,36.2 35.8,35.5 C34,35.2 31.7,35.4 28.9,36.4 C28.9,36.4 32.2,47.6 42.7,40.8 C42.7,40.8 41.4,37 37,35.8 Z" id="Path"></path>
            <ellipse id="Oval" cx="17.1" cy="58.3" rx="3" ry="2.4"></ellipse>
            <circle id="Oval" cx="13.7" cy="51.6" r="1.4"></circle>
            <circle id="Oval" cx="20.1" cy="51.6" r="1.4"></circle>
            <circle id="Oval" cx="24.2" cy="56" r="1.4"></circle>
            <circle id="Oval" cx="10.1" cy="55.5" r="1.4"></circle>
            <path d="M45,0 C20.2,0 0,20.2 0,45 C0,69.8 20.2,90 45,90 C69.8,90 90,69.8 90,45 C90,20.2 69.8,0 45,0 Z M64.1,81.5 L62.6,70.8 L61.8,82.6 C56.7,84.9 51,86.2 45,86.2 C39.4,86.2 34,85.1 29.1,83 L31.7,72.1 C31.7,72.1 28.6,77.4 24.7,80.8 C19.8,78 15.4,74.2 12,69.7 C11.8,66.7 11.8,64 11.8,62.3 C11.2,61.7 10.6,61.1 10.3,60.4 C10.1,60 10,59.6 10,59.2 C10,59.2 10,59.2 9.9,59.2 C7.9,59.2 6.3,57.5 6.3,55.4 C6.3,53.3 7.9,51.6 9.9,51.6 C9.9,51.6 9.9,51.6 9.9,51.6 C10.1,49.7 11.8,48.3 13.9,48.3 C15.2,48.3 16.3,48.9 17.1,49.7 C17.7,48.8 18.7,48.3 19.9,48.3 C21.7,48.3 23.2,49.7 23.2,51.5 C23.2,52.1 23,52.6 22.8,53 C23.2,52.8 23.6,52.8 24,52.8 C25.7,52.8 27.1,54.2 27.1,55.9 C27.1,57.6 25.7,59 24,59 C23.7,59 23.5,59 23.2,58.9 C23.1,60.8 21.7,62.5 19.8,63.3 C19.4,66.8 18.2,78.3 22.8,72 C26,67.7 28.6,58.9 29.9,54.4 C28.3,53.1 27,51.7 26,50.4 C22.1,45.3 22,38 25.6,32.7 L23,21.2 C22.7,20 24,19 25.1,19.5 L37.3,25.2 C38.4,24.9 39.5,24.7 40.7,24.5 L42.4,28.9 C42.6,29.4 43.3,29.3 43.3,28.8 L44.1,24.1 C44.5,24.1 44.9,24.1 45.3,24.1 L46.3,29.2 C46.4,29.7 47.2,29.7 47.3,29.2 L48.3,24.1 C48.8,24.1 49.4,24.1 49.9,24.2 L50.9,28.3 C51,28.8 51.7,28.8 51.8,28.3 L52.7,24.6 C53.9,24.8 55,25 56,25.2 L68,19.5 C69.1,19 70.4,20 70.1,21.2 L67.6,32.4 C71,37.5 71,44.4 67.2,49.9 C66.5,50.9 65.5,52 64.5,53.1 C68,57.8 70.1,71.1 70.9,77.1 C68.8,78.7 66.5,80.2 64.1,81.5 Z" id="Shape"></path>
        </g>
    </g>
</svg>